<svg xmlns="http://www.w3.org/2000/svg" xmlns:xlink="http://www.w3.org/1999/xlink" width="24" height="24" viewBox="0 0 24 24">
    <defs>
        <path id="a" d="M0 0h22.5v18H0z"/>
        <path id="c" d="M.6.15A.45.45 0 0 0 .15.6v14.152L7.045 8.37a.45.45 0 0 1 .6-.012l2.106 1.807 4.947-4.498a.45.45 0 0 1 .621.015l5.532 5.55V.6a.451.451 0 0 0-.45-.452H.6zm1.8 4.275A2.478 2.478 0 0 1 4.875 1.95 2.477 2.477 0 0 1 7.35 4.425a2.477 2.477 0 0 1-2.475 2.474A2.477 2.477 0 0 1 2.4 4.425z"/>
        <linearGradient id="d" x1="-.004%" y1="50.003%" y2="50.003%">
            <stop offset="0%" stop-color="#42A3FF"/>
            <stop offset="100%" stop-color="#90EBFF"/>
        </linearGradient>
    </defs>
    <g fill="none" fill-rule="evenodd">
        <g transform="translate(.75 3)">
            <mask id="b" fill="#fff">
                <use xlink:href="#a"/>
            </mask>
            <path fill="#16254F" d="M21.6 16.65a.45.45 0 0 1-.45.45H1.35a.445.445 0 0 1-.437-.383l7.198-6.665 4.42 3.79a.45.45 0 0 0 .587-.683l-1.929-1.653 4.547-4.134 5.864 5.885v3.393zM1.35.9h19.8c.248 0 .45.202.45.45v10.631l-5.532-5.55a.45.45 0 0 0-.62-.014L10.5 10.915 8.393 9.108a.45.45 0 0 0-.598.012L.9 15.503V1.351c0-.249.202-.451.45-.451zm19.8-.9H1.35C.606 0 0 .606 0 1.35v15.3C0 17.395.606 18 1.35 18h19.8c.745 0 1.35-.605 1.35-1.35V1.35A1.35 1.35 0 0 0 21.15 0z" mask="url(#b)"/>
        </g>
        <path fill="#16254F" d="M6.375 6.6c.869 0 1.575.707 1.575 1.575 0 .869-.707 1.575-1.575 1.575A1.577 1.577 0 0 1 4.8 8.175c0-.868.707-1.575 1.575-1.575m0 4.05A2.477 2.477 0 0 0 8.85 8.174 2.478 2.478 0 0 0 6.375 5.7 2.478 2.478 0 0 0 3.9 8.175a2.477 2.477 0 0 0 2.475 2.474"/>
        <g transform="translate(1.5 3.75)">
            <mask id="e" fill="#fff">
                <use xlink:href="#c"/>
            </mask>
            <path fill="url(#d)" d="M.6.15A.45.45 0 0 0 .15.6v14.152L7.045 8.37a.45.45 0 0 1 .6-.012l2.106 1.807 4.947-4.498a.45.45 0 0 1 .621.015l5.532 5.55V.6a.451.451 0 0 0-.45-.452H.6zm1.8 4.275A2.478 2.478 0 0 1 4.875 1.95 2.477 2.477 0 0 1 7.35 4.425a2.477 2.477 0 0 1-2.475 2.474A2.477 2.477 0 0 1 2.4 4.425z" mask="url(#e)"/>
        </g>
        <g fill="#FFF">
            <path d="M11.19 11.505l1.928 1.653a.45.45 0 0 1-.586.683l-4.42-3.789-7.199 6.665a.445.445 0 0 0 .437.383h19.8a.45.45 0 0 0 .45-.45v-3.394l-5.864-5.885-4.547 4.134zM5.625 3.6c-.869 0-1.575.707-1.575 1.575 0 .869.707 1.575 1.575 1.575.869 0 1.575-.706 1.575-1.575 0-.868-.707-1.575-1.575-1.575"/>
        </g>
    </g>
</svg>
