
<svg xmlns="http://www.w3.org/2000/svg" width="24" height="24" viewBox="0 0 24 24">
    <defs>
        <linearGradient id="a" x1="0%" y1="50%" y2="50%">
            <stop offset="0%" stop-color="#16254f" />
            <stop offset="100%" stop-color="#16254f" />
        </linearGradient>
    </defs>
    <path fill="url(#a)" fill-rule="evenodd" d="M23.883 8.825c-.233-.632-.816-1.138-1.4-1.138l-6.18-.885L13.62.985C13.154.1 12.104-.279 11.171.227c-.35.252-.583.505-.7.758L7.79 6.802 1.49 7.814C.908 7.94.325 8.32.091 8.952c-.233.632 0 1.264.467 1.77l4.548 4.806-.933 6.449c-.116.632.234 1.39.7 1.644.583.379 1.283.379 1.866.126l5.365-3.035 5.482 3.035c.233.127.583.253.816.253.35 0 .7-.126 1.05-.38.583-.379.816-1.011.7-1.77l-1.05-6.575 4.431-4.68c.467-.379.584-1.137.35-1.77" />
</svg>
