
<svg xmlns="http://www.w3.org/2000/svg" width="24" height="24" viewBox="0 0 24 24">
    <defs>
        <linearGradient id="a" x1="0%" y1="50%" y2="50%">
            <stop offset="0%" stop-color="#16254f" />
            <stop offset="100%" stop-color="#16254f" />
        </linearGradient>
    </defs>
    <path fill="url(#a)" fill-rule="evenodd" d="M12.077 19.57l5.44 2.994c.223.12.445.12.555.12.223 0 .445-.12.668-.241.333-.24.555-.599.443-1.077l-.999-6.588 4.442-4.67c.221-.242.333-.6.221-1.079-.11-.36-.555-.719-.776-.719l-6.22-.84-2.664-5.747c-.444-.48-1.11-.6-1.778-.36l-.443.48-2.665 5.869-6.218.957c-.335.12-.778.24-.89.72-.22.359 0 .718.335.958l4.552 4.79-.888 6.467c-.112.361.11.839.333.96.444.238.887.238 1.333.12l5.219-3.115zM18.072 24c-.332 0-.777-.119-.998-.36l-4.997-2.634-4.886 2.756c-.779.359-1.666.238-2.332-.121-.668-.358-1.11-1.317-.89-2.155l.89-5.75L.75 11.306c-.667-.719-.888-1.557-.667-2.396.222-.718.89-1.317 1.778-1.438l5.774-.957 2.442-5.27c.112-.36.445-.6.89-.96 1.22-.599 2.553-.238 3.109.96l2.443 5.27 5.552.838c.666 0 1.444.6 1.777 1.438.332.838.11 1.916-.556 2.395l-3.997 4.192.998 5.868c.112.958-.222 1.797-.887 2.277-.445.36-.889.478-1.334.478z" />
</svg>
